<svg xmlns="http://www.w3.org/2000/svg" viewBox="0 0 512 512" width="512" height="512" role="img" aria-label="Ava mark">
  <polygon points="360.00,436.13 186.67,135.91 256.00,135.91 429.33,436.13" fill="#628E70"/>
  <polygon points="464.00,376.09 290.67,75.87 256.00,135.91 429.33,436.13" fill="#91C596"/>
  <polygon points="221.33,75.87 186.67,135.91 256.00,135.91 290.67,75.87" fill="#87B487"/>
  <polygon points="221.33,75.87 48.00,376.09 117.33,376.09 290.67,75.87" fill="#69A284"/>
  <polygon points="325.33,135.91 290.67,75.87 117.33,376.09 152.00,436.13" fill="#78B693"/>
  <polygon points="82.67,436.13 48.00,376.09 117.33,376.09 152.00,436.13" fill="#37746A"/>
  <polygon points="82.67,316.04 48.00,376.09 394.67,376.09 429.33,316.04" fill="#619D83"/>
  <polygon points="82.67,436.13 48.00,376.09 394.67,376.09 429.33,436.13" fill="#497F6D"/>
  <polygon points="464.00,376.09 429.33,316.04 394.67,376.09 429.33,436.13" fill="#88BF95"/>
</svg>
